<?xml version="1.0" encoding="UTF-8"?>
<svg width="102px" height="88px" viewBox="0 0 102 88" version="1.1" xmlns="http://www.w3.org/2000/svg" xmlns:xlink="http://www.w3.org/1999/xlink">
    <!-- Generator: Sketch 53.2 (72643) - https://sketchapp.com -->
    <title>Group 8</title>
    <desc>Created with Sketch.</desc>
    <defs>
        <polygon id="path-1" points="0.37605 0.7891875 68.58715 0.7891875 68.58715 69 0.37605 69"></polygon>
    </defs>
    <g id="Page-1" stroke="none" stroke-width="1" fill="none" fill-rule="evenodd">
        <g id="Start-Copy" transform="translate(-1200.000000, -2395.000000)">
            <g id="Group-8" transform="translate(1200.000000, 2395.000000)">
                <g id="Group-3" transform="translate(25.000000, 19.000000)">
                    <mask id="mask-2" fill="white">
                        <use xlink:href="#path-1"></use>
                    </mask>
                    <g id="Clip-2"></g>
                    <path d="M65.5684,65.006625 L64.5932,65.981825 C60.56935,70.006825 54.04425,70.006825 50.01925,65.981825 L3.3948,19.357375 C-0.6302,15.332375 -0.6302,8.807275 3.3948,4.783425 L4.37,3.807075 C8.39385,-0.216775 14.91895,-0.216775 18.94395,3.807075 L65.5684,50.432675 C69.5934,54.456525 69.5934,60.981625 65.5684,65.006625" id="Fill-1" fill="#FF0843" mask="url(#mask-2)"></path>
                </g>
                <path d="M61.391686,12.361587 L18.1523652,55.3996288 C16.0962603,57.4462171 12.8581546,57.5426352 10.9208264,55.6154216 L1.39101663,46.1297201 C-0.545158416,44.2013587 -0.448292005,40.9782404 1.60781288,38.9305043 L39.1112583,1.60064171 C40.8006546,-0.0809353392 43.3491638,-0.484972964 45.319934,0.614652162 L60.5844659,4.39102655 C63.4362592,5.98307253 63.8364097,9.92817854 61.391686,12.361587" id="Fill-4" fill="#FFAB00"></path>
                <path d="M78.9254753,6.77839991 L45.0947486,37.9980195 C43.5491998,39.4243198 43.9558631,41.9669545 45.8680942,42.8385189 L64.3335756,51.2670727 C66.2366682,52.134062 66.6501853,54.6595399 65.1240558,56.0904153 L42.9529127,76.8890071 C40.5346372,79.1571333 43.1299712,83.0734542 46.1570993,81.7237875 L97.5211804,58.8240622 C99.8343632,57.7935116 99.8480709,54.509704 97.5440266,53.4597091 L77.6746432,44.3917793 C75.7052964,43.4927641 75.3488949,40.8414698 77.0121019,39.4529144 L100.942406,19.4824232 C102.605613,18.0950116 102.249212,15.4437173 100.279865,14.5447021 L82.1365158,6.26484031 C81.0604574,5.77415642 79.7947752,5.97660642 78.9254753,6.77839991" id="Fill-6" fill="#3BC4F4"></path>
            </g>
        </g>
    </g>
</svg>